<?xml version="1.0" encoding="utf-8"?>
<!-- Generator: Adobe Illustrator 19.0.0, SVG Export Plug-In . SVG Version: 6.00 Build 0)  -->
<svg version="1.1" id="Layer_1" xmlns="http://www.w3.org/2000/svg" xmlns:xlink="http://www.w3.org/1999/xlink" x="0px" y="0px"
	 viewBox="0 0 4.9 17.1" style="enable-background:new 0 0 4.9 17.1;" xml:space="preserve">
<style type="text/css">
	.st0{fill:rgb(95,34,254);}
</style>
<g id="XMLID_347_">
	<path id="XMLID_348_" class="st0" d="M0.8,9.7H0.4C0.1,9.7,0,9.5,0,9.3l0-1.1c0-0.3,0.1-0.4,0.4-0.4h0.4c0.2,0,0.4-0.1,0.5-0.2
		c0.1-0.1,0.2-0.7,0.2-1.1V3.7c0-0.7,0-1.3,0.4-2c0.3-0.6,0.7-0.9,1.3-1.5l0.1-0.1c0.2-0.2,0.4-0.2,0.6,0L4.8,1C5,1.2,5,1.4,4.8,1.6
		L4.6,1.8L4.2,2.2C4.1,2.4,4,2.5,3.9,2.7C3.8,2.9,3.7,3.3,3.7,3.8l0,2.8c0,0.9-0.2,1.6-0.7,2.1c0.6,0.4,0.7,1.1,0.7,1.9l0,2.8
		c0,0.5,0.1,0.9,0.2,1.2c0,0,0,0.1,0.1,0.1c0,0,0,0,0,0.1c0.1,0.2,0.2,0.4,0.4,0.5l0.3,0.1c0.2,0.2,0.3,0.4,0,0.6l-0.9,0.9
		c-0.2,0.2-0.4,0.2-0.6,0l-0.2-0.2l-0.7-0.6c-0.2-0.2-0.4-0.4-0.5-0.7c-0.4-0.7-0.4-1.3-0.4-2v-2.8c0-0.4-0.1-0.8-0.2-0.9
		C1.2,9.8,1,9.7,0.8,9.7z"/>
</g>
</svg>
