<?xml version="1.0" encoding="utf-8"?>
<!-- Generator: Adobe Illustrator 19.0.0, SVG Export Plug-In . SVG Version: 6.00 Build 0)  -->
<svg version="1.1" id="Layer_1" xmlns="http://www.w3.org/2000/svg" xmlns:xlink="http://www.w3.org/1999/xlink" x="0px" y="0px"
	 viewBox="0 0 215.3 17.6" style="enable-background:new 0 0 215.3 17.6;" xml:space="preserve">
<style type="text/css">
	.st0{fill:#FFFFFF;}
	.st1{fill:rgb(95,34,254);}
</style>
<g id="XMLID_334_">
	<path id="XMLID_364_" class="st0" d="M0,0.3h7.5c1.8,0,3.5,0.4,4.9,1.1c1.4,0.7,2.5,1.7,3.3,3c0.8,1.3,1.2,2.8,1.2,4.5
		s-0.4,3.2-1.2,4.5c-0.8,1.3-1.9,2.3-3.3,3c-1.4,0.7-3,1.1-4.9,1.1H0V0.3z M7.3,14.8c1.3,0,2.4-0.2,3.3-0.7c1-0.5,1.7-1.2,2.2-2.1
		c0.5-0.9,0.8-1.9,0.8-3.1c0-1.2-0.3-2.2-0.8-3.1c-0.5-0.9-1.2-1.6-2.2-2.1C9.7,3.2,8.6,3,7.3,3H3.2v11.8H7.3z"/>
	<path id="XMLID_362_" class="st0" d="M86.5,15.6c-1.3-1.3-2-3.2-2-5.7V0.3h3.2v9.5c0,3.4,1.5,5,4.4,5c2.9,0,4.3-1.7,4.3-5V0.3h3.1
		v9.7c0,2.5-0.7,4.4-2,5.7c-1.3,1.3-3.2,2-5.5,2C89.6,17.6,87.8,17,86.5,15.6z"/>
	<path id="XMLID_360_" class="st0" d="M125.4,8.6h3v6.8c-0.9,0.7-1.9,1.2-3.1,1.6s-2.4,0.6-3.6,0.6c-1.7,0-3.3-0.4-4.7-1.1
		c-1.4-0.8-2.5-1.8-3.3-3.1c-0.8-1.3-1.2-2.8-1.2-4.5s0.4-3.2,1.2-4.5c0.8-1.3,1.9-2.4,3.3-3.1c1.4-0.8,3-1.1,4.8-1.1
		c1.4,0,2.7,0.2,3.9,0.7s2.2,1.2,3,2.1l-2,2c-1.3-1.3-2.9-2-4.7-2c-1.2,0-2.3,0.3-3.2,0.8c-0.9,0.5-1.7,1.2-2.2,2.1
		c-0.5,0.9-0.8,2-0.8,3.1c0,1.1,0.3,2.2,0.8,3.1c0.5,0.9,1.3,1.6,2.2,2.2c0.9,0.5,2,0.8,3.2,0.8c1.3,0,2.5-0.3,3.5-0.9V8.6z"/>
	<path id="XMLID_358_" class="st0" d="M215.3,0.3v17.1h-2.6l-9.5-11.6v11.6h-3.2V0.3h2.6l9.5,11.6V0.3H215.3z"/>
	<path id="XMLID_354_" class="st0" d="M64.7,17.5h-7.3c-0.4,0-0.7-0.3-0.7-0.7l0-15.9c0-0.4,0.3-0.7,0.7-0.7h7.1
		c2,0,3.6,1.7,3.6,3.7c0,0.8-0.1,1.3-0.4,1.8c-0.3,0.5-0.8,0.9-1.7,1.4c2.4,0.4,3.4,1.6,3.4,3.9v1.8C69.4,15.4,67.3,17.5,64.7,17.5z
		 M65.1,4.4c0.1-0.1,0.1-0.3,0.1-0.6c0-0.4-0.3-0.8-0.7-0.8h-4.9v4.8C61.3,7,64.7,5.1,65.1,4.4z M59.6,14.6h5.1
		c0.5,0,0.9-0.2,1.3-0.5l0.2-0.3c0.3-0.4,0.3-0.9,0.3-1c0-0.2,0-0.4,0-0.6c0-0.2,0-0.4,0-0.6c0-1.6-0.8-2.1-1.6-2.1h-2.8L59.6,11
		V14.6z"/>
	<path id="XMLID_352_" class="st0" d="M154.4,5.6l0,0.2c-0.1,0.3-0.3,0.6-0.6,0.6h-1.4c-0.4,0-0.5-0.2-0.6-0.5
		c-0.2-0.6-0.4-1.2-0.7-1.6c-0.8-1-1.9-1.6-3.3-1.6c-2.2,0-4.1,1.8-4.1,4.1v3.6c0,2.3,1.8,4.1,4.1,4.1c1.3,0,2.5-0.6,3.3-1.7
		c0.4-0.6,0.6-1.1,0.8-1.8l0,0c0.1-0.4,0.3-0.6,0.6-0.6h1.4c0.4,0,0.7,0.3,0.7,0.7c0,0.4-0.1,0.9-0.3,1.3c-0.9,2.7-3.7,4.7-6.5,4.7
		c-3.7,0-6.8-3-6.8-6.8V6.8c0-3.7,3.1-6.8,6.8-6.8C151.1,0,153.7,2.4,154.4,5.6z"/>
	<path id="XMLID_350_" class="st0" d="M30.5,16.9l0-16c0-0.4,0.3-0.7,0.7-0.7h10.5c0.7,0,0.7,0.4,0.7,0.8v1.2c0,0.8-0.1,0.8-0.9,0.8
		h-8.1v3.8h7.2c0.4,0,0.7,0.3,0.7,0.7v1.5c0,0.4-0.3,0.7-0.7,0.7h-7.2v4.8h8.4c0.8,0,0.9,0.1,0.9,0.8v1.2c0,0.4,0,0.9-0.7,0.9H31.2
		C30.8,17.6,30.5,17.3,30.5,16.9z"/>
	<g id="XMLID_335_">
		<g id="XMLID_118_">
			<g id="XMLID_122_">
				<path id="XMLID_123_" class="st1" d="M168.7,9.8h-0.4c-0.3,0-0.4-0.1-0.4-0.4V8.3c0-0.3,0.1-0.4,0.4-0.4h0.4
					c0.2,0,0.4-0.1,0.5-0.2c0.1-0.1,0.2-0.7,0.2-1.1V3.8c0-0.7,0-1.3,0.4-2c0.3-0.6,0.7-0.9,1.3-1.5l0.1-0.1c0.2-0.2,0.4-0.2,0.6,0
					l0.9,0.9c0.2,0.2,0.2,0.4,0,0.6l-0.2,0.2L172,2.3c-0.1,0.1-0.2,0.3-0.3,0.4c-0.1,0.3-0.2,0.6-0.2,1.2l0,2.8
					c0,0.9-0.2,1.6-0.7,2.1c0.6,0.4,0.7,1.1,0.7,1.9l0,2.8c0,0.5,0.1,0.9,0.2,1.2c0,0,0,0.1,0.1,0.1c0,0,0,0,0,0.1
					c0.1,0.2,0.2,0.4,0.4,0.5l0.3,0.1c0.2,0.2,0.3,0.4,0,0.6l-0.9,0.9c-0.2,0.2-0.4,0.2-0.6,0l-0.2-0.2l-0.7-0.6
					c-0.2-0.2-0.4-0.4-0.5-0.7c-0.4-0.7-0.4-1.3-0.4-2v-2.8c0-0.4-0.1-0.8-0.2-0.9C169,9.8,168.9,9.8,168.7,9.8z"/>
			</g>
			<g id="XMLID_119_">
				<path id="XMLID_120_" class="st1" d="M184.6,10c-0.1,0.1-0.2,0.5-0.2,0.9v2.8c0,0.7,0,1.3-0.4,2c-0.1,0.2-0.3,0.5-0.5,0.7
					l-0.7,0.6l-0.2,0.2c-0.1,0.2-0.4,0.2-0.6,0l-0.9-0.9c-0.2-0.2-0.2-0.4,0-0.6l0.3-0.1c0.2-0.1,0.3-0.2,0.4-0.5c0,0,0,0,0-0.1
					c0-0.1,0-0.1,0.1-0.1c0.1-0.3,0.2-0.7,0.2-1.2l0-2.8c0-0.7,0.2-1.4,0.7-1.9c-0.5-0.4-0.7-1.2-0.7-2.1l0-2.8
					c0-0.5-0.1-0.9-0.2-1.2c-0.1-0.2-0.2-0.3-0.3-0.4l-0.4-0.4l-0.2-0.2c-0.2-0.2-0.2-0.4,0-0.6l0.9-0.9c0.2-0.2,0.4-0.2,0.6,0
					l0.1,0.1c0.5,0.5,0.9,0.9,1.3,1.5c0.4,0.7,0.4,1.3,0.4,2v2.8c0,0.4,0.1,1,0.2,1.1c0.1,0.1,0.3,0.2,0.5,0.2h0.4
					c0.3,0,0.4,0.1,0.4,0.4v1.1c0,0.3-0.1,0.4-0.4,0.4h-0.4C184.9,9.8,184.7,9.8,184.6,10z"/>
			</g>
		</g>
	</g>
</g>
</svg>
