<?xml version="1.0" encoding="utf-8"?>
<!-- Generator: Adobe Illustrator 19.0.0, SVG Export Plug-In . SVG Version: 6.00 Build 0)  -->
<svg version="1.1" id="Layer_1" xmlns="http://www.w3.org/2000/svg" xmlns:xlink="http://www.w3.org/1999/xlink" x="0px" y="0px"
	 viewBox="0 0 4.9 17.1" style="enable-background:new 0 0 4.9 17.1;" xml:space="preserve">
<style type="text/css">
	.st0{fill:rgb(95,34,254);}
</style>
<g id="XMLID_347_">
	<path id="XMLID_348_" class="st0" d="M3.6,9.9c-0.1,0.1-0.2,0.5-0.2,0.9v2.8c0,0.7,0,1.3-0.4,2c-0.1,0.2-0.3,0.5-0.5,0.7l-0.7,0.6
		l-0.2,0.2c-0.1,0.2-0.4,0.2-0.6,0l-0.9-0.9c-0.2-0.2-0.2-0.4,0-0.6l0.3-0.1c0.2-0.1,0.3-0.2,0.4-0.5c0,0,0,0,0-0.1
		c0-0.1,0-0.1,0.1-0.1c0.1-0.3,0.2-0.7,0.2-1.2l0-2.8c0-0.7,0.2-1.4,0.7-1.9C1.5,8.3,1.3,7.5,1.3,6.7l0-2.8c0-0.5-0.1-0.9-0.2-1.2
		C0.9,2.5,0.8,2.4,0.7,2.2L0.4,1.8L0.1,1.6C0,1.4,0,1.2,0.1,1L1,0.2c0.2-0.2,0.4-0.2,0.6,0l0.1,0.1C2.3,0.8,2.7,1.2,3,1.7
		c0.4,0.7,0.4,1.3,0.4,2v2.8c0,0.4,0.1,1,0.2,1.1c0.1,0.1,0.3,0.2,0.5,0.2h0.4c0.3,0,0.4,0.1,0.4,0.4v1.1c0,0.3-0.1,0.4-0.4,0.4H4.1
		C3.9,9.7,3.7,9.8,3.6,9.9z"/>
</g>
</svg>
